<svg id="Layer_1" data-name="Layer 1" xmlns="http://www.w3.org/2000/svg" xmlns:xlink="http://www.w3.org/1999/xlink" viewBox="0 0 1027.34 982.8">
  <defs>
    <style>
      .cls-1 {
        fill: url(#linear-gradient);
      }

      .cls-1, .cls-2, .cls-3, .cls-4, .cls-5 {
        stroke-width: 0px;
      }

      .cls-2 {
        fill: #fff;
      }

      .cls-3 {
        fill: url(#linear-gradient-2);
      }

      .cls-4 {
        fill: url(#linear-gradient-3);
      }

      .cls-5 {
        fill: url(#linear-gradient-4);
      }

      .cls-6 {
        fill: #6fc7b0;
        font-family: MontserratRoman-Bold, Montserrat;
        font-size: 163.82px;
        font-variation-settings: 'wght' 700;
        font-weight: 700;
      }
    </style>
    <linearGradient id="linear-gradient" x1="2.5" y1="314.66" x2="1027.34" y2="314.66" gradientUnits="userSpaceOnUse">
      <stop offset="0" stop-color="#088395"/>
      <stop offset=".1" stop-color="#069ea0"/>
      <stop offset=".27" stop-color="#03c7b2"/>
      <stop offset=".43" stop-color="#01e6bf"/>
      <stop offset=".56" stop-color="#00f8c7"/>
      <stop offset=".66" stop-color="#00ffca"/>
      <stop offset=".71" stop-color="#01f0cd"/>
      <stop offset=".82" stop-color="#03d5d5"/>
      <stop offset=".92" stop-color="#04c4d9"/>
      <stop offset="1" stop-color="#05bfdb"/>
    </linearGradient>
    <linearGradient id="linear-gradient-2" x1="859.37" y1="982.8" x2="859.37" y2="549.85" gradientUnits="userSpaceOnUse">
      <stop offset="0" stop-color="#05bfdb"/>
      <stop offset=".12" stop-color="#03d7d4"/>
      <stop offset=".26" stop-color="#01edce"/>
      <stop offset=".39" stop-color="#00facb"/>
      <stop offset=".51" stop-color="#00ffca"/>
      <stop offset=".74" stop-color="#04bdad"/>
      <stop offset=".91" stop-color="#06939b"/>
      <stop offset="1" stop-color="#088395"/>
    </linearGradient>
    <linearGradient id="linear-gradient-3" x1="514.92" y1="970.9" x2="514.92" y2="480.37" gradientUnits="userSpaceOnUse">
      <stop offset="0" stop-color="#088395"/>
      <stop offset=".07" stop-color="#078997"/>
      <stop offset=".17" stop-color="#069b9f"/>
      <stop offset=".28" stop-color="#04b8ab"/>
      <stop offset=".41" stop-color="#01e1bd"/>
      <stop offset=".49" stop-color="#00ffca"/>
      <stop offset=".65" stop-color="#01e9cf"/>
      <stop offset="1" stop-color="#05bfdb"/>
    </linearGradient>
    <linearGradient id="linear-gradient-4" x1="165.47" x2="165.47" xlink:href="#linear-gradient-2"/>
  </defs>
  <path class="cls-1" d="M1027.34,629.32C1027.34-160.52,2.5-160.52,2.5,629.32v-118.23c0-681.45,1024.84-681.45,1024.84,0v118.23Z"/>
  <path class="cls-3" d="M848.36,767.15c-11.37,7.16-28.11,13.68-30.19,14.39-23.86,8.17-33.28,12.69-38.09,7.16-6.97-8.01,12.84-35.54,14.11-37.79,7.29-12.88,8.06-14.48,17.16-29.41,7.75-12.71,14.48-22.68,17.78-28.01,12.89-20.84,13.54-21.22,23.11-39.43,4.04-7.68,12.32-21.13,26.63-41.33,14.4-20.33,19.3-28.41,28.47-36.44,12.3-10.77,22.44-20.46,38.89-24.28,5.8-1.35,14.6-3.56,24.76-.91,18.86,4.92,28.51,24.41,33.41,34.5,37.96,78.24,11.46,167.36,11.46,167.36-21.05,70.78-66.13,112-99.29,142.31-32.73,29.92-85.73,72.23-156.96,83.34-52.49,8.19-60.88,2.46-63.12-.87-5.42-8.07-1.42-21.71,4.14-30.01,8.26-12.35,21.77-15.62,35.24-19.65,0,0,15.36-4.59,65.73-25.78,43.12-18.14,70.48-48.23,80.37-60.12,24.92-29.96,34.48-59.34,40.74-79.12,14.42-45.51,17.27-95.37,8.66-97.77-11.19-3.13-39.6,74.55-82.99,101.87Z"/>
  <path class="cls-4" d="M226.38,809.45c-8.73,5.95,12.24,43.49,33.74,68.95,0,0,26.68,31.59,72.54,58.28,11.88,6.91,24.37,12.59,24.37,12.59,6.02,2.74,12.5,5.66,21.53,8.63,5.93,1.95,13.98,4.55,24.41,6.16,7.89,1.22,19.72,2.26,34.31.62.29-33.89.58-67.79.86-101.68,2.21-9.71,7.92-25.42,23.76-36.64,32.91-23.32,91.94-14.77,112.33,12.97,6.39,8.69,7.94,17.85,8.2,24.36.48,35.74.96,71.48,1.44,107.23,47.94-6.88,123.66-25.46,173.71-80.11,30.74-33.57,55.17-84.41,45.94-89.97-4.3-2.59-14.44,5.54-27.28,13.56-61.54,38.44-150.77,52.89-169.41,32.05-4.04-4.52-7.06-13.27,1.44-32.05l130.64-210.53-223.96-123.48-223.96,123.48c43.32,72.33,86.64,144.65,129.96,216.98.73,3.08,2.81,13.02-.77,21.51-1.19,2.83-3.01,5.5-5.72,7.71-6.72,5.46-15.88,5.6-30.13,5.13-33.42-1.11-50.13-1.67-64.62-5.13-59.04-14.09-84.76-46.44-93.32-40.6Z"/>
  <path class="cls-5" d="M176.48,767.15c11.37,7.16,28.11,13.68,30.19,14.39,23.86,8.17,33.28,12.69,38.09,7.16,6.97-8.01-12.84-35.54-14.11-37.79-7.29-12.88-8.06-14.48-17.16-29.41-7.75-12.71-14.48-22.68-17.78-28.01-12.89-20.84-13.54-21.22-23.11-39.43-4.04-7.68-12.32-21.13-26.63-41.33-14.4-20.33-19.3-28.41-28.47-36.44-12.3-10.77-22.44-20.46-38.89-24.28-5.8-1.35-14.6-3.56-24.76-.91-18.86,4.92-28.51,24.41-33.41,34.5-37.96,78.24-11.46,167.36-11.46,167.36,21.05,70.78,66.13,112,99.29,142.31,32.73,29.92,85.73,72.23,156.96,83.34,52.49,8.19,60.88,2.46,63.12-.87,5.42-8.07,1.42-21.71-4.14-30.01-8.26-12.35-21.77-15.62-35.24-19.65,0,0-15.36-4.59-65.73-25.78-43.12-18.14-70.48-48.23-80.37-60.12-24.92-29.96-34.48-59.34-40.74-79.12-14.42-45.51-17.27-95.37-8.66-97.77,11.19-3.13,39.6,74.55,82.99,101.87Z"/>
  <text class="cls-6" transform="translate(320.01 317.27)"><tspan x="0" y="0">NHC</tspan></text>
  <rect class="cls-2" x="453.94" y="582.27" width="50" height="50" rx="8.91" ry="8.91"/>
  <rect class="cls-2" x="520.9" y="582.27" width="50" height="50" rx="8.91" ry="8.91"/>
  <rect class="cls-2" x="453.94" y="647.72" width="50" height="50" rx="8.91" ry="8.91"/>
  <rect class="cls-2" x="520.9" y="647.72" width="50" height="50" rx="8.91" ry="8.91"/>
</svg>